<svg xmlns="http://www.w3.org/2000/svg" width="128" height="128" viewBox="0 0 128 128">
  <title>CLOUD AND MOON</title>
  <g>
    <path d="M115.205,93.159a8.254,8.254,0,0,1-8.257,8.258H50.758c-.117,0-.226,0-.353-.009a.1.1,0,0,1-.072,0c-.181.009-.371.009-.561.009a12.318,12.318,0,1,1,0-24.636,12.093,12.093,0,0,1,3.857.615,17.7,17.7,0,0,1,.588-1.81,19.039,19.039,0,0,1,17.818-12.3c.345,0,.689.009,1.033.036a18.971,18.971,0,0,1,14.124,7.461,13.1,13.1,0,0,1,1.8-.109A15.385,15.385,0,0,1,104.322,84.9h2.626A8.282,8.282,0,0,1,115.205,93.159Z" fill="#62dff4"/>
    <path d="M54.217,75.586a17.7,17.7,0,0,0-.588,1.81,12.093,12.093,0,0,0-3.857-.615A12.314,12.314,0,0,0,37.657,91.349H26.1a2.268,2.268,0,0,1-.353-.018.1.1,0,0,1-.072,0c-.19.009-.38.018-.562.018a12.323,12.323,0,0,1,0-24.645,12.074,12.074,0,0,1,3.848.615A19.1,19.1,0,0,1,42.456,53.856a33.883,33.883,0,0,0,1.956,7.777A34.271,34.271,0,0,0,54.217,75.586Z" fill="#2b74f7"/>
    <path d="M110.361,55.839A34.483,34.483,0,0,1,99.632,74.961a15.321,15.321,0,0,0-10.638-4.283,13.1,13.1,0,0,0-1.8.109,18.971,18.971,0,0,0-14.124-7.461c-.344-.027-.688-.036-1.033-.036a19.039,19.039,0,0,0-17.818,12.3,34.271,34.271,0,0,1-9.8-13.953,33.883,33.883,0,0,1-1.956-7.777A34.465,34.465,0,0,1,55.1,22.583a34.637,34.637,0,0,0,55.257,33.256Z" fill="#ffc82c"/>
  </g>
</svg>
