<?xml version="1.0" encoding="iso-8859-1"?>
<!-- Generator: Adobe Illustrator 19.0.0, SVG Export Plug-In . SVG Version: 6.00 Build 0)  -->
<svg version="1.1" id="Layer_1" xmlns="http://www.w3.org/2000/svg" xmlns:xlink="http://www.w3.org/1999/xlink" x="0px" y="0px"
	 viewBox="0 0 512 512" style="enable-background:new 0 0 512 512;" xml:space="preserve">
<g>
	<path style="fill:#92DEFF;" d="M256,132.994c-5.291,0-10.586-2.019-14.623-6.055l-59.955-59.934
		c-8.076-8.074-8.076-21.163,0-29.236c8.076-8.074,21.172-8.074,29.248,0L256,83.085l45.331-45.316
		c8.076-8.074,21.172-8.074,29.248,0c8.076,8.073,8.076,21.162,0,29.236l-59.955,59.934
		C266.586,130.976,261.291,132.994,256,132.994z"/>
	<path style="fill:#92DEFF;" d="M315.955,480.29c-5.292,0-10.586-2.019-14.624-6.055L256,428.919l-45.331,45.316
		c-8.077,8.074-21.172,8.074-29.248,0s-8.076-21.162,0-29.236l59.955-59.934c8.077-8.074,21.171-8.074,29.247,0l59.955,59.934
		c8.076,8.074,8.076,21.163,0,29.236C326.54,478.272,321.247,480.29,315.955,480.29z"/>
	<path style="fill:#92DEFF;" d="M52.317,336.61c-5.291,0-10.586-2.019-14.623-6.055c-8.076-8.074-8.076-21.162,0-29.236
		l45.332-45.317l-45.332-45.316c-8.076-8.074-8.076-21.163,0-29.236c8.076-8.074,21.172-8.074,29.247,0l59.955,59.934
		c8.076,8.074,8.076,21.163,0,29.236L66.94,330.555C62.903,334.591,57.61,336.61,52.317,336.61z"/>
	<path style="fill:#92DEFF;" d="M459.683,336.61c-5.292,0-10.586-2.019-14.623-6.055l-59.955-59.934
		c-8.076-8.074-8.076-21.163,0-29.236l59.955-59.934c8.076-8.074,21.171-8.074,29.247,0c8.075,8.074,8.075,21.162,0,29.236
		l-45.332,45.315l45.332,45.316c8.075,8.074,8.075,21.163,0,29.236C470.268,334.591,464.974,336.61,459.683,336.61z"/>
</g>
<path style="fill:#43A8ED;" d="M483.483,235.328H343.188v-17.504c0-5.33-2.062-10.36-5.608-14.139l59.106-59.087
	c8.076-8.074,8.076-21.163,0-29.237c-8.076-8.073-21.172-8.073-29.248,0l-66.31,66.289l-24.449-14.082V28.593
	c0-11.419-9.259-20.673-20.681-20.673c-11.422,0-20.681,9.255-20.681,20.673v138.976l-24.447,14.082l-66.31-66.289
	c-8.076-8.073-21.172-8.073-29.248,0c-8.076,8.074-8.076,21.163,0,29.237l59.106,59.087c-3.547,3.779-5.607,8.81-5.607,14.139
	v17.504H28.517c-11.422,0-20.681,9.256-20.681,20.673c0,11.418,9.259,20.673,20.681,20.673h140.295v17.503
	c0,5.33,2.062,10.36,5.608,14.14l-59.107,59.087c-8.076,8.074-8.076,21.163,0,29.236c4.039,4.036,9.332,6.055,14.623,6.055
	c5.292,0,10.586-2.019,14.624-6.055l66.31-66.289l24.447,14.082v138.976c0,11.418,9.259,20.673,20.681,20.673
	s20.681-9.256,20.681-20.673V344.434l24.449-14.082l66.31,66.289c4.039,4.036,9.332,6.055,14.624,6.055
	c5.291,0,10.585-2.019,14.623-6.055c8.076-8.074,8.076-21.163,0-29.236l-59.106-59.087c3.547-3.779,5.608-8.811,5.608-14.14v-17.503
	h140.294c11.422,0,20.681-9.256,20.681-20.673S494.904,235.328,483.483,235.328z M210.173,282.231v-52.458L256,203.376
	l45.827,26.396v52.458L256,308.627L210.173,282.231z"/>
<g>
	<path style="fill:#636052;" d="M512,256.002c0-15.72-12.793-28.51-28.517-28.51h-14.903l11.267-11.264
		c5.386-5.385,8.353-12.545,8.353-20.16s-2.967-14.776-8.353-20.16c-5.386-5.384-12.548-8.35-20.164-8.35
		c-7.617,0-14.779,2.965-20.164,8.35l-51.602,51.586h-36.891v-9.667c0-4.677-1.17-9.199-3.28-13.22l54.482-54.462
		c5.386-5.384,8.353-12.545,8.353-20.16c0-7.616-2.966-14.776-8.353-20.161c-5.386-5.384-12.548-8.35-20.165-8.35
		c-7.616,0-14.778,2.965-20.164,8.35l-62.063,62.043l-15.318-8.823v-38.908l51.602-51.586c5.386-5.385,8.353-12.545,8.353-20.16
		c0-7.616-2.967-14.776-8.353-20.16c-5.386-5.384-12.548-8.35-20.164-8.35c-7.617,0-14.778,2.965-20.165,8.35l-11.272,11.269V28.593
		c0-15.72-12.793-28.51-28.517-28.51s-28.517,12.79-28.517,28.51v14.901l-11.27-11.269c-5.386-5.384-12.548-8.35-20.165-8.35
		c-7.616,0-14.778,2.965-20.164,8.35c-5.385,5.385-8.353,12.545-8.353,20.16s2.966,14.775,8.353,20.16l51.602,51.585v38.908
		l-15.318,8.823l-62.063-62.043c-5.386-5.384-12.548-8.35-20.164-8.35c-7.617,0-14.779,2.965-20.165,8.35
		c-5.385,5.385-8.352,12.545-8.352,20.161c0,7.615,2.966,14.776,8.352,20.16l54.483,54.464c-2.11,4.021-3.28,8.542-3.28,13.219
		v9.667h-36.892L72.48,175.905c-5.385-5.384-12.547-8.35-20.164-8.35c-7.616,0-14.778,2.965-20.164,8.35
		c-5.385,5.385-8.353,12.545-8.353,20.16c0,7.615,2.966,14.775,8.353,20.161l11.267,11.263H28.517
		C12.793,227.491,0,240.281,0,256.002c0,15.721,12.793,28.51,28.517,28.51h14.903l-11.267,11.264
		c-5.386,5.385-8.353,12.545-8.353,20.16s2.968,14.776,8.353,20.16c5.385,5.384,12.547,8.35,20.164,8.35s14.779-2.965,20.164-8.35
		l51.602-51.586h36.892v9.666c0,4.677,1.17,9.199,3.28,13.219l-54.483,54.465c-5.385,5.385-8.352,12.545-8.352,20.16
		c0,7.616,2.966,14.776,8.353,20.161c5.386,5.383,12.547,8.349,20.163,8.349s14.778-2.965,20.165-8.35l62.063-62.044l15.317,8.823
		v38.908l-51.602,51.586c-5.386,5.385-8.353,12.545-8.353,20.16c0,7.616,2.967,14.776,8.353,20.16
		c5.386,5.384,12.548,8.35,20.164,8.35c7.617,0,14.779-2.965,20.165-8.35l11.272-11.269v14.901c0,15.72,12.793,28.51,28.517,28.51
		s28.517-12.79,28.517-28.51v-14.901l11.273,11.27c5.386,5.383,12.548,8.349,20.164,8.349s14.777-2.965,20.164-8.35
		c5.385-5.385,8.353-12.545,8.353-20.16s-2.966-14.775-8.353-20.16l-51.602-51.585v-38.908l15.317-8.823l62.064,62.044
		c5.386,5.383,12.548,8.349,20.164,8.349c7.616,0,14.777-2.965,20.164-8.35c5.386-5.384,8.353-12.545,8.353-20.16
		c0-7.616-2.966-14.776-8.353-20.16l-54.483-54.464c2.111-4.022,3.281-8.544,3.281-13.22v-9.666h36.891l51.602,51.585
		c5.385,5.384,12.547,8.35,20.164,8.35c7.617,0,14.778-2.965,20.164-8.35c5.385-5.384,8.353-12.544,8.353-20.16
		c0-7.615-2.966-14.775-8.353-20.16l-11.267-11.264h14.903C499.207,284.512,512,271.722,512,256.002z M284.517,65.657l22.354-22.347
		c2.425-2.425,5.652-3.761,9.083-3.761c3.43,0,6.657,1.335,9.082,3.761c2.425,2.424,3.762,5.648,3.762,9.077
		c0,3.428-1.335,6.652-3.762,9.076l-40.52,40.507V65.657H284.517z M43.235,205.143c-2.425-2.425-3.762-5.649-3.762-9.077
		c0-3.428,1.335-6.652,3.762-9.076c2.425-2.425,5.652-3.761,9.082-3.761c3.431,0,6.657,1.335,9.082,3.761l40.515,40.5H65.589
		L43.235,205.143z M61.4,325.012c-2.425,2.425-5.651,3.761-9.082,3.761s-6.657-1.335-9.082-3.761
		c-2.425-2.424-3.762-5.648-3.762-9.076s1.335-6.652,3.762-9.076l22.356-22.348h36.325L61.4,325.012z M160.976,268.838H28.517
		c-7.081,0-12.844-5.758-12.844-12.837c0-7.078,5.763-12.837,12.844-12.837h132.459L160.976,268.838L160.976,268.838z
		 M227.483,446.345l-22.354,22.347c-2.425,2.425-5.652,3.761-9.083,3.761c-3.43,0-6.657-1.335-9.082-3.761
		c-2.425-2.424-3.762-5.648-3.762-9.076s1.335-6.652,3.762-9.076l40.52-40.507v36.311H227.483z M243.156,28.593
		c0-7.078,5.762-12.837,12.844-12.837c7.082,0,12.844,5.758,12.844,12.837v125.479c-3.975-2.005-8.38-3.065-12.844-3.065
		s-8.869,1.061-12.844,3.065L243.156,28.593L243.156,28.593z M186.963,61.462c-2.425-2.425-3.762-5.649-3.762-9.077
		c0-3.428,1.335-6.652,3.762-9.076c2.425-2.425,5.652-3.761,9.082-3.761c3.431,0,6.658,1.335,9.083,3.761l22.354,22.347v36.311
		L186.963,61.462z M120.854,139.057c-2.425-2.424-3.761-5.648-3.761-9.076c0-3.428,1.334-6.652,3.761-9.076
		c2.425-2.425,5.652-3.761,9.083-3.761c3.43,0,6.657,1.335,9.082,3.761l59.079,59.06l-22.841,13.156
		c-0.067,0.039-0.131,0.084-0.197,0.123L120.854,139.057z M139.022,391.098c-2.426,2.425-5.653,3.762-9.084,3.762
		c-3.43,0-6.657-1.335-9.082-3.761c-2.425-2.424-3.761-5.648-3.761-9.076s1.334-6.652,3.761-9.076l54.206-54.187
		c0.066,0.04,0.129,0.084,0.196,0.122l22.844,13.158L139.022,391.098z M268.844,483.41c0,7.078-5.762,12.837-12.844,12.837
		c-7.082,0-12.844-5.758-12.844-12.837V357.931c3.975,2.004,8.381,3.065,12.844,3.065s8.869-1.061,12.844-3.065V483.41z
		 M325.037,450.541c2.425,2.425,3.762,5.649,3.762,9.077s-1.335,6.652-3.761,9.076c-2.426,2.425-5.653,3.762-9.083,3.762
		c-3.431,0-6.658-1.335-9.083-3.761l-22.353-22.347v-36.311L325.037,450.541z M262.414,343.608c-3.896,2.243-8.931,2.243-12.826,0
		l-66.508-38.309c-3.966-2.284-6.429-6.546-6.429-11.122v-76.354c0-4.576,2.464-8.838,6.43-11.122l66.507-38.308
		c1.948-1.122,4.165-1.715,6.414-1.715c2.249,0,4.465,0.592,6.414,1.715l66.508,38.308c3.966,2.285,6.43,6.546,6.43,11.122v76.354
		c0,4.576-2.464,8.837-6.43,11.122L262.414,343.608z M391.146,372.947c2.425,2.424,3.762,5.648,3.762,9.076
		s-1.335,6.652-3.761,9.076c-2.426,2.425-5.653,3.762-9.083,3.762c-3.431,0-6.658-1.335-9.083-3.761l-59.08-59.06l22.844-13.158
		c0.067-0.039,0.13-0.083,0.196-0.122L391.146,372.947z M336.941,193.244c-0.067-0.04-0.13-0.084-0.196-0.122l-22.842-13.157
		l59.079-59.06c2.425-2.425,5.652-3.761,9.082-3.761c3.431,0,6.658,1.335,9.083,3.761c2.425,2.424,3.762,5.648,3.762,9.076
		c0,3.428-1.335,6.652-3.762,9.076L336.941,193.244z M450.6,186.99c2.425-2.424,5.651-3.761,9.082-3.761
		c3.43,0,6.657,1.335,9.082,3.761c2.425,2.424,3.762,5.648,3.762,9.076s-1.335,6.652-3.762,9.077l-22.356,22.348h-36.325
		L450.6,186.99z M468.765,306.86c2.425,2.425,3.762,5.649,3.762,9.076c0,3.428-1.335,6.652-3.762,9.076
		c-2.425,2.425-5.651,3.761-9.082,3.761s-6.657-1.335-9.082-3.761l-40.514-40.5h36.325L468.765,306.86z M351.025,268.838v-25.673
		h132.458c7.081,0,12.844,5.758,12.844,12.837c0,7.078-5.763,12.837-12.844,12.837H351.025z"/>
	<path style="fill:#636052;" d="M202.336,225.242v61.518L256,317.67l53.664-30.91v-61.518L256,194.332L202.336,225.242z
		 M293.99,277.701L256,299.582L218.01,277.7v-43.399L256,212.42l37.99,21.882V277.701z"/>
</g>
<g>
</g>
<g>
</g>
<g>
</g>
<g>
</g>
<g>
</g>
<g>
</g>
<g>
</g>
<g>
</g>
<g>
</g>
<g>
</g>
<g>
</g>
<g>
</g>
<g>
</g>
<g>
</g>
<g>
</g>
</svg>
